<svg xmlns="http://www.w3.org/2000/svg" xmlns:xlink="http://www.w3.org/1999/xlink" viewBox="0 0 1297 586"><defs><style>.cls-1{fill:#e4c78b;stroke:#e4c78b;}.cls-2{fill:#d6c28d;stroke:#d6c28d;}.cls-3{fill:#dcb365;stroke:#dcb365;}.cls-4{fill:#d99f47;stroke:#d99f47;}.cls-5{fill:#e4b966;stroke:#e4b966;}.cls-6{fill:#ebcf87;stroke:#ebcf87;}.cls-7{fill:#f0d389;stroke:#f0d389;}.cls-8{fill:#f2e1ad;stroke:#f2e1ad;}.cls-9{fill:#f6f0d0;stroke:#f6f0d0;}.cls-10{fill:#f2efca;stroke:#f2efca;}.cls-11{fill:#dee9c2;stroke:#dee9c2;}.cls-12{fill:#cae0b7;stroke:#cae0b7;}.cls-13{fill:#b8bb83;stroke:#b8bb83;}.cls-14{fill:#a0a973;stroke:#a0a973;}.cls-15{fill:#cebd93;stroke:#cebd93;}.cls-16{fill:#ddc69a;stroke:#ddc69a;}.cls-17{fill:#dfd1ab;stroke:#dfd1ab;}.cls-18{fill:#ead7a7;stroke:#ead7a7;}.cls-19{fill:#e6f5e6;stroke:#e6f5e6;}.cls-20{fill:#d5f3f0;stroke:#d5f3f0;}.cls-21{fill:#caeee9;stroke:#caeee9;}.cls-22{fill:#c6e8d7;stroke:#c6e8d7;}.cls-23{fill:#aedbcc;stroke:#aedbcc;}.cls-24{fill:#849d6f;stroke:#849d6f;}.cls-25{fill:#9eb181;stroke:#9eb181;}.cls-26{fill:#91b184;stroke:#91b184;}.cls-27{fill:#b9d3a8;stroke:#b9d3a8;}.cls-28{fill:#bfe3c1;stroke:#bfe3c1;}.cls-29{fill:#dff2dc;stroke:#dff2dc;}.cls-30{fill:#bef1e6;stroke:#bef1e6;}.cls-31{fill:#96dbd1;stroke:#96dbd1;}.cls-32{fill:#87d6cc;stroke:#87d6cc;}.cls-33{fill:#a7e8df;stroke:#a7e8df;}.cls-34{fill:#a0ddd6;stroke:#a0ddd6;}.cls-35{fill:#66c6ba;stroke:#66c6ba;}.cls-36{fill:url(#Безымянный_градиент_2);}</style><linearGradient id="Безымянный_градиент_2" x1="648.5" y1="588" x2="648.5" y2="1.58" gradientTransform="matrix(1, 0, 0, -1, 0, 588)" gradientUnits="userSpaceOnUse"><stop offset="0" stop-color="#fff" stop-opacity="0.3"/><stop offset="1" stop-color="#fff"/></linearGradient></defs><title>ebook_bg</title><path class="cls-1" d="M948-344.12,615-6,845,55.47Z"/><path class="cls-2" d="M948-344.12,845,55.47,1085-84.44Z"/><path class="cls-3" d="M-100-186.19l88,385.82,143-9.54Z"/><path class="cls-4" d="M-100-186.19,131,190.09l152-424Z"/><path class="cls-5" d="M283-233.89l-152,424L369-64.3Z"/><path class="cls-6" d="M369-64.3,131,190.09l188-81.61Z"/><path class="cls-7" d="M369-64.3,319,108.47,615-6Z"/><path class="cls-8" d="M615-6,319,108.47l-12,267.1Z"/><path class="cls-9" d="M615-6,307,375.58l538-3.18Z"/><path class="cls-10" d="M615-6,845,372.4V55.47Z"/><path class="cls-11" d="M1085-84.44,845,55.47l255,195Z"/><path class="cls-12" d="M1085-84.44l15,334.94,278-194Z"/><path class="cls-13" d="M1085-84.44l293,141-130-330.7Z"/><path class="cls-14" d="M1248-274.17l130,330.7L1688-101.4Z"/><path class="cls-15" d="M-12,199.63-153,437.05,173,566.36Z"/><path class="cls-16" d="M-12,199.63,173,566.36,131,190.09Z"/><path class="cls-17" d="M131,190.09l42,376.28L307,375.58Z"/><path class="cls-18" d="M131,190.09,307,375.58l12-267.1Z"/><path class="cls-19" d="M845,55.47V372.4L1100,250.5Z"/><path class="cls-20" d="M1100,250.5,845,372.4l190,177Z"/><path class="cls-21" d="M1100,250.5l-65,298.9,158-234.25Z"/><path class="cls-22" d="M1100,250.5l93,64.66L1378,56.53Z"/><path class="cls-23" d="M1378,56.53,1193,315.16l464,33.92Z"/><path class="cls-24" d="M-153,437.05-47,789l61-14.84Z"/><path class="cls-25" d="M-153,437.05,14,774.11,173,566.36Z"/><path class="cls-26" d="M173,566.36,14,774.11l313-88Z"/><path class="cls-27" d="M173,566.36,327,686.14,307,375.58Z"/><path class="cls-28" d="M307,375.58l20,310.56,517-72.08Z"/><path class="cls-29" d="M307,375.58,844,614.06l1-241.67Z"/><path class="cls-30" d="M845,372.4l-1,241.67,191-64.66Z"/><path class="cls-31" d="M1035,549.41,844,614.06l70,190.79Z"/><path class="cls-32" d="M1035,549.41,914,804.85l321-176Z"/><path class="cls-33" d="M1035,549.41l200,79.49-42-313.74Z"/><path class="cls-34" d="M1193,315.16l42,313.74,422-279.82Z"/><path class="cls-35" d="M1657,349.08,1235,628.9l273,213Z"/><rect class="cls-36" width="1297" height="586.42"/></svg>
