<?xml version="1.0" encoding="UTF-8"?>
<svg width="90px" height="24px" viewBox="0 0 90 24" version="1.1" xmlns="http://www.w3.org/2000/svg" xmlns:xlink="http://www.w3.org/1999/xlink">
    <!-- Generator: Sketch 49.3 (51167) - http://www.bohemiancoding.com/sketch -->
    <title>pay-paypal</title>
    <desc>Created with Sketch.</desc>
    <defs>
        <polygon id="path-1" points="0 22.847641 89.3959753 22.847641 89.3959753 0.0247291144 0 0.0247291144"></polygon>
    </defs>
    <g id="Page-1" stroke="none" stroke-width="1" fill="none" fill-rule="evenodd">
        <g id="pay-paypal">
            <g id="g2993" transform="translate(45.000000, 11.880000) scale(-1, 1) rotate(-180.000000) translate(-45.000000, -11.880000) ">
                <g id="g2995" transform="translate(59.710717, 5.320881)" fill="#336699" fill-rule="nonzero">
                    <path d="M8.69127534,3.70936717 C8.38583908,3.51771653 8.06302028,3.35368007 7.72488829,3.21396057 C7.2704588,3.03137728 6.83961983,2.93575804 6.44106278,2.93575804 C5.82936254,2.93575804 5.35920593,3.02189779 5.04135358,3.20612969 C4.72308735,3.3808821 4.55629764,3.68463805 4.56167795,4.11945832 C4.56167795,4.62145934 4.6779755,5.0109429 4.91884798,5.31634746 C5.16137595,5.61021177 5.52185695,5.84678696 5.96883681,6.02318798 C6.41333347,6.17321127 6.96005608,6.29685684 7.59120824,6.3854695 C8.15241628,6.45594748 9.26200247,6.58330242 9.40395997,6.58412672 C9.54591746,6.58536318 9.64027984,6.66325989 9.57695769,6.28655305 C9.54881454,6.12292874 9.22847896,4.81310998 9.08155502,4.21755047 C9.03892635,4.0390887 8.80053711,3.77902084 8.69127534,3.70936717 Z M13.0460182,12.9151922 C12.1114991,13.4345036 10.6497094,13.6970443 8.64947445,13.6970443 C7.66032456,13.6970443 6.6662082,13.6179112 5.66878088,13.4637663 C4.9366444,13.3520732 4.86132002,13.3335264 4.40647661,13.235022 C3.47071596,13.0322433 3.32627524,12.0991314 3.32627524,12.0991314 L3.02580544,10.8684458 C2.85529089,10.0812356 3.30558172,10.1137956 3.5063088,10.1747941 C3.91479874,10.2976154 4.13621933,10.4196124 4.96975402,10.6075537 C5.76645426,10.787664 6.60826636,10.9224377 7.27997776,10.9170797 C8.26498899,10.9170797 9.01409414,10.8095081 9.51198009,10.6026078 C10.0102798,10.3862281 10.2569465,10.0177643 10.2569465,9.490622 C10.258602,9.36532776 10.261913,9.24704021 10.2163873,9.14359008 C10.1754141,9.04714649 10.0967788,8.95400017 9.86128654,8.92226449 C8.45536932,8.8390098 7.4463536,8.71124271 6.23123056,8.53484169 C5.03224843,8.36668371 3.98308733,8.07858952 3.10609626,7.67962649 C2.17116336,7.26665029 1.47172263,6.71395458 0.989563776,6.01370848 C0.520234911,5.31016517 0.284328865,4.45824719 0.283087254,3.45465729 C0.283087254,2.50629575 0.625357955,1.73268662 1.28755036,1.13218129 C1.95760631,0.539506847 2.82921706,0.246054689 3.88375847,0.246054689 C4.54263992,0.25058836 5.05832226,0.297985829 5.4279084,0.389895705 C5.7937697,0.48180558 6.19274063,0.612457734 6.61406055,0.794216729 C6.92901581,0.925281033 7.2688033,1.11487091 7.62762883,1.35268256 C7.98686816,1.59131852 8.2356042,1.76071295 8.55469814,1.96884966 L8.56628653,1.94906637 L8.47647666,1.554637 C8.4760628,1.55092763 8.4706825,1.54886687 8.4706825,1.5451575 L8.47357958,1.53773877 C8.37093976,1.06252762 8.6577519,0.667273939 9.13039172,0.620700773 L9.13618587,0.612457734 L9.17798676,0.612457734 L9.17964227,0.610396975 C9.49335591,0.610396975 10.5702463,0.610809127 11.0735126,0.612457734 L11.4248884,0.612457734 C11.4480651,0.612457734 11.4505483,0.619464317 11.4596535,0.624822292 C11.9422262,0.683760015 12.4049331,1.07530433 12.5137811,1.5451575 L14.3112195,9.27094501 C14.3526066,9.45270398 14.3853023,9.66248933 14.4047542,9.90401036 C14.4271033,10.1480042 14.4535909,10.3487222 14.4457274,10.4937997 C14.4498661,11.5872387 13.978054,12.3954686 13.0460182,12.9151922 Z" id="path2997"></path>
                </g>
                <g id="g2999">
                    <g id="g3001-Clipped">
                        <g>
                            <mask id="mask-2" fill="white">
                                <use xlink:href="#path-1"></use>
                            </mask>
                            <g id="path-1"></g>
                            <g id="g3001" mask="url(#mask-2)">
                                <g transform="translate(-0.708661, -0.698824)" id="Group">
                                    <g transform="translate(0.294791, 0.286671)">
                                        <g id="g3007" transform="translate(30.660336, 0.300047)" fill="#1C3664" fill-rule="nonzero">
                                            <path d="M11.5883671,18.9589877 C11.0610964,18.9589877 10.3695192,18.5340591 10.0421478,18.0205178 C10.0421478,18.0205178 6.51514555,11.9989785 6.16873615,11.3972367 C5.98042519,11.0736975 5.789631,11.2793612 5.75776299,11.3997096 C5.73210303,11.5460236 4.66473164,17.9809513 4.66473164,17.9809513 C4.54470927,18.4990262 4.00129763,18.9437381 3.32172266,18.9416774 L1.12241613,18.9383801 C0.592248335,18.9383801 0.261566001,18.5155123 0.379519024,18.0044439 C0.379519024,18.0044439 2.06066,8.51505841 2.38844524,6.28325584 C2.55192399,5.04886087 2.37147656,4.8300082 2.37147656,4.8300082 L0.192035799,1.04562939 C-0.127058168,0.532500265 0.0475950793,0.112105319 0.575279654,0.112105319 L3.12389269,0.114166078 C3.65157726,0.114166078 4.35060412,0.532500265 4.66473164,1.04645369 L14.469318,17.5601441 C14.469318,17.5601441 15.407148,18.9709401 14.5421592,18.9589877 C13.9523941,18.9507447 11.5883671,18.9589877 11.5883671,18.9589877" id="path3009"></path>
                                        </g>
                                        <g id="g3011" transform="translate(0.056700, 6.377639)" fill="#1C3664" fill-rule="nonzero">
                                            <path d="M16.5548102,14.4253168 C16.2489601,15.0196398 15.7903919,15.5022697 15.2051793,15.866612 C14.5980316,16.2396095 13.891969,16.4967923 13.068781,16.6517614 C12.2406267,16.7997239 11.2734119,16.8722627 10.1638257,16.8821543 L5.02604038,16.8784449 C4.49214775,16.8722627 3.96901575,16.4551649 3.84568241,15.9440966 L0.381174505,0.945476474 C0.261979871,0.432347351 0.595559297,0.00824303814 1.12738258,0.00824303814 L3.58866898,0.00824303814 C4.12090613,0.00824303814 4.64817684,0.421219249 4.76778534,0.945476474 L5.61580549,4.58518997 C5.72920594,5.09419758 6.25523503,5.51541683 6.78871379,5.51541683 L7.49229321,5.51541683 C10.5023716,5.51830189 12.8370137,6.13158393 14.5148437,7.35897229 C16.1901905,8.58388778 17.0282778,10.2077663 17.0241391,12.2157704 C17.0282778,13.0977755 16.8747319,13.8359396 16.5548102,14.4253168 M11.2403023,9.5248306 C10.4982329,8.98449941 9.46976528,8.71371564 8.13461988,8.71371564 L7.53119702,8.71371564 C6.99937375,8.71371564 6.66372498,9.13369844 6.78085026,9.6497126 L7.521678,12.8290525 C7.63466457,13.3413573 8.16524624,13.7662859 8.69706957,13.7613401 L9.50246107,13.7662859 C10.4431881,13.7662859 11.158356,13.6059588 11.6409287,13.2869532 C12.1164656,12.9766028 12.3581658,12.4865542 12.3498884,11.8275233 C12.36396,10.8350615 11.9860965,10.0668103 11.2403023,9.5248306" id="path3013"></path>
                                        </g>
                                    </g>
                                </g>
                            </g>
                        </g>
                    </g>
                </g>
                <g id="g3015" transform="translate(44.328815, 5.910670)" fill="#336699" fill-rule="nonzero">
                    <path d="M16.5548102,14.4253168 C16.2481324,15.0196398 15.7850116,15.4981482 15.1993851,15.8707335 C14.5988594,16.2424946 13.885347,16.5017381 13.059262,16.6529978 C12.2422822,16.7956024 11.2709287,16.8772084 10.1642396,16.8796814 L5.01486588,16.8772084 C4.48469809,16.8681411 3.96446317,16.4535163 3.84195758,15.9428601 L0.379932894,0.939706351 C0.253702466,0.429874439 0.598042519,0.00494582289 1.1186913,0.00783088628 L3.58949672,0.0123645572 C4.11345646,0.00783088628 4.64734909,0.429874439 4.7710963,0.939706351 L5.60628648,4.5806563 C5.72341175,5.09090036 6.25606277,5.51830189 6.78871379,5.51088316 L7.49105164,5.51088316 C10.5048548,5.51088316 12.8415663,6.12746241 14.5148437,7.35485077 C16.1839825,8.58842147 17.0241391,10.2065298 17.0241391,12.2190676 C17.0187588,13.0977755 16.8685238,13.8380003 16.5548102,14.4253168 M11.2423716,9.51823615 C10.5048548,8.98408731 9.46976528,8.71618856 8.13793082,8.71618856 L7.52540287,8.71618856 C6.99564892,8.71000628 6.65337822,9.13658347 6.77919477,9.64806401 L7.51753935,12.8323496 C7.62762883,13.3359992 8.16524624,13.7646373 8.68755054,13.7605157 L9.49666684,13.7646373 C10.4411188,13.7605157 11.1475953,13.6030737 11.6355484,13.2902504 C12.115224,12.9737177 12.3478191,12.4828448 12.3515439,11.8287597 C12.3536132,10.8317643 11.9831994,10.0647496 11.2423716,9.51823615" id="path3017"></path>
                </g>
                <g id="g3019" transform="translate(15.015213, 5.332421)" fill="#1C3664" fill-rule="nonzero">
                    <path d="M8.69127534,3.70936717 C8.38583908,3.51771653 8.0634342,3.35450438 7.72530215,3.21437273 C7.27087266,3.03261374 6.83796436,2.93617019 6.44064891,2.93617019 C5.83060415,2.93617019 5.35920593,3.02272209 5.04093971,3.20612969 C4.72308735,3.38129425 4.5554699,3.6850502 4.56085021,4.12028262 C4.56085021,4.62104719 4.67838936,5.0117672 4.91884798,5.31675961 C5.16178982,5.61103607 5.52061534,5.84802342 5.9675952,6.02401229 C6.41333347,6.17485988 6.96171156,6.29685684 7.59079431,6.3854695 C8.15200243,6.45594748 9.26283019,6.58289027 9.40437383,6.58495103 C9.54508968,6.58536318 9.63986598,6.6640842 9.57654383,6.28737735 C9.5492284,6.12375304 9.22847896,4.81310998 9.08155502,4.21796262 C9.03727091,4.03867655 8.79888161,3.77860869 8.69127534,3.70936717 Z M13.0460182,12.9156043 C12.1114991,13.4349158 10.6501233,13.6970443 8.64988831,13.6970443 C7.66032456,13.6970443 6.66662207,13.6187355 5.66878088,13.4641785 C4.93540279,13.3533097 4.86173389,13.3343506 4.40647661,13.2358464 C3.47030209,13.0322433 3.32627524,12.0999557 3.32627524,12.0999557 L3.02580544,10.8684458 C2.85570476,10.0816478 3.30640947,10.1142078 3.5063088,10.1752063 C3.913971,10.2980275 4.1366332,10.4196124 4.97016789,10.6083779 C5.76562652,10.787664 6.60868024,10.9220255 7.2795639,10.9174919 C8.26540285,10.9174919 9.01368028,10.8103324 9.51156624,10.6034322 C10.0102798,10.3870523 10.2557049,10.0177643 10.2557049,9.4910341 C10.2590159,9.36573993 10.2614991,9.24704021 10.217215,9.14441434 C10.1754141,9.04714649 10.095951,8.95441233 9.86045882,8.92308882 C8.45619704,8.83859764 7.44759524,8.71124271 6.23040282,8.53484169 C5.03142069,8.36668371 3.98267347,8.07858952 3.10526853,7.68003865 C2.17033561,7.26706246 1.47172263,6.71354243 0.990391521,6.01370848 C0.51940717,5.31057733 0.283914995,4.45865933 0.283087254,3.45465729 C0.283087254,2.5067079 0.625771826,1.73268662 1.2871365,1.13259344 C1.95760631,0.539918999 2.82838932,0.246054689 3.88293073,0.246054689 C4.54222605,0.25058836 5.05749452,0.298810133 5.42832226,0.389895705 C5.7937697,0.482629884 6.19315449,0.612457734 6.61281893,0.794216729 C6.92901581,0.925281033 7.26797558,1.11569522 7.62721491,1.35309471 C7.98562658,1.59131852 8.2356042,1.76071295 8.55593979,1.96884966 L8.56587267,1.94947852 L8.4760628,1.5554613 C8.47523509,1.55175193 8.47026865,1.54927902 8.47026865,1.54474535 L8.47399344,1.53856307 C8.37135361,1.06211547 8.65733797,0.667273939 9.13039172,0.621525077 L9.13618587,0.612457734 L9.17757291,0.612457734 L9.17881455,0.609572672 C9.49335591,0.609572672 10.5706602,0.611221279 11.0726848,0.612457734 L11.4244745,0.612457734 C11.4480651,0.612457734 11.4513761,0.620288621 11.4588257,0.625234444 C11.9426401,0.685820774 12.4036916,1.07654078 12.5137811,1.54474535 L14.3112195,9.27135717 C14.3517789,9.45270398 14.3848884,9.66248933 14.4030988,9.9035982 C14.4271033,10.1488286 14.453177,10.3487222 14.4461412,10.4933876 C14.45028,11.5876509 13.9776401,12.3958808 13.0460182,12.9156043 Z" id="path3021"></path>
                </g>
                <g id="g3023" transform="translate(74.206937, 5.768890)" fill="#336699" fill-rule="nonzero">
                    <path d="M7.03579433,16.8982282 L4.83359071,16.8982282 C4.83234909,16.8982282 4.83110748,16.897816 4.83027975,16.897816 L4.82903814,16.8982282 C4.32494417,16.8982282 3.81340053,16.5136905 3.67061529,16.0244662 C3.66482111,16.0046829 3.65488822,15.9857239 3.65033565,15.9651163 C3.65033565,15.9651163 3.59777413,15.7264803 3.50672267,15.3139163 L0.481744977,1.65932358 C0.411800904,1.3506218 0.365033565,1.14949167 0.350961976,1.09714838 L0.35675616,1.08972965 C0.252046986,0.612457734 0.540100683,0.217616208 1.01315439,0.173515953 L1.01936244,0.164448611 L3.30516786,0.164448611 C3.80595086,0.164448611 4.31418354,0.545276974 4.46152135,1.02831901 C4.46855715,1.05181167 4.47973164,1.07365572 4.48511195,1.09714838 L7.78489951,15.9659406 L7.77993307,15.9675892 C7.89209192,16.4761846 7.56306503,16.8982282 7.03579433,16.8982282" id="path3025"></path>
                </g>
                <g id="g3027" transform="translate(83.756993, 19.227711)" fill="#336699" fill-rule="nonzero">
                    <path d="M1.65548102,0.412151908 C1.5805705,0.392368616 1.49862419,0.37588254 1.40881435,0.363105831 C1.31941838,0.350741274 1.23912754,0.343734691 1.17001121,0.343734691 C0.924172278,0.343734691 0.738758402,0.409678996 0.611700237,0.540331151 C0.484228198,0.671395458 0.420906049,0.881592934 0.420906049,1.17051142 L0.420906049,2.43870284 L0.148165551,2.43870284 L0.148165551,2.7766674 L0.420906049,2.7766674 L0.420906049,3.46207602 L0.823601806,3.46207602 L0.823601806,2.7766674 L1.65548102,2.7766674 L1.65548102,2.43870284 L0.823601806,2.43870284 L0.823601806,1.35185825 C0.823601806,1.22697623 0.827326637,1.12888407 0.832293085,1.0584061 C0.838501136,0.987515971 0.858366907,0.921983816 0.892718143,0.860985334 C0.923758413,0.803696221 0.966800913,0.762481028 1.02225953,0.736103305 C1.07771815,0.70931343 1.1617338,0.696124572 1.27472039,0.696124572 C1.34011188,0.696124572 1.40881435,0.70601622 1.48082777,0.725387356 C1.55159959,0.744346348 1.60333337,0.760420267 1.63478751,0.773196977 L1.65548102,0.773196977 L1.65548102,0.412151908" id="path3029"></path>
                </g>
                <g id="g3031" transform="translate(85.671142, 19.206691)" fill="#336699" fill-rule="nonzero">
                    <path d="M3.7248323,0.412151908 L3.32213654,0.412151908 L3.32213654,1.77060459 C3.32213654,1.87281827 3.3171701,1.97214688 3.30765108,2.06735397 C3.29813206,2.16297321 3.27785242,2.23880916 3.24846763,2.29609828 C3.21535801,2.35709676 3.16859067,2.40366992 3.106924,2.43458132 C3.04525733,2.46590486 2.95710297,2.48156664 2.8412193,2.48156664 C2.72781885,2.48156664 2.61566001,2.45354031 2.50225956,2.3970755 C2.38927298,2.34102283 2.27670027,2.26972056 2.16371369,2.1827565 C2.16785239,2.14978435 2.17116336,2.11186638 2.17406045,2.06817827 C2.17737141,2.02490232 2.17861302,1.98203852 2.17861302,1.93917473 L2.17861302,0.412151908 L1.77591726,0.412151908 L1.77591726,1.77060459 C1.77591726,1.87611548 1.77053695,1.97585625 1.7614318,2.07065118 C1.75232666,2.16544612 1.73204702,2.24086992 1.70266223,2.29774689 C1.66913874,2.35915752 1.62195753,2.40490638 1.56029086,2.43581778 C1.49903807,2.46631702 1.41046983,2.48156664 1.29458616,2.48156664 C1.18449667,2.48156664 1.07482105,2.45436461 0.963489954,2.40037271 C0.852572728,2.34638081 0.74248324,2.27755144 0.63197988,2.19347245 L0.63197988,0.412151908 L0.228456381,0.412151908 L0.228456381,2.79768715 L0.63197988,2.79768715 L0.63197988,2.53308563 C0.758210308,2.6369479 0.883612991,2.71814183 1.00860181,2.7766674 C1.13441837,2.83436867 1.26644298,2.86404361 1.40840048,2.86404361 C1.57105149,2.86404361 1.70969803,2.829835 1.82351234,2.76182993 C1.93691279,2.69300057 2.02175619,2.59861778 2.07762868,2.47744512 C2.24027969,2.61427955 2.38927298,2.71319601 2.52378081,2.77337019 C2.65787478,2.83354436 2.80148776,2.86404361 2.95461975,2.86404361 C3.21784123,2.86404361 3.41194638,2.78449829 3.5369352,2.62623196 C3.66192402,2.46714132 3.7248323,2.24540359 3.7248323,1.96060662 L3.7248323,0.412151908" id="path3033"></path>
                </g>
            </g>
        </g>
    </g>
</svg>