<svg width="30" height="31" viewBox="0 0 30 31" xmlns="http://www.w3.org/2000/svg">
    <g transform="translate(.5 1)">
        <path d="M13.637 22.98c.028.02.057.038.087.055l.098.05c.018.007.034.018.053.026l.03.01c.035.014.07.025.107.036.03.01.058.017.088.024.035.008.07.013.107.018.03.004.06.01.09.012.038.003.074.002.11.002.03 0 .06 0 .09-.002.037-.002.075-.008.113-.014.028-.004.056-.008.084-.015a1.276 1.276 0 0 0 .194-.056l.04-.013c.022-.008.042-.02.064-.032a1.288 1.288 0 0 0 .177-.1c.023-.018.048-.034.07-.053.033-.024.062-.05.09-.077.014-.012.03-.022.042-.036l6.437-6.436a1.375 1.375 0 1 0-1.944-1.944l-4.09 4.09V5.79A1.372 1.372 0 0 0 14.4 4.412c-.38 0-.723.154-.972.403a1.37 1.37 0 0 0-.403.973V18.52l-4.09-4.09a1.376 1.376 0 0 0-1.945 1.946l6.44 6.436c.012.014.028.025.042.038a1.384 1.384 0 0 0 .165.13" fill="#f7d075"/>
    </g>
</svg>
