<svg width="118" height="52" viewBox="0 0 118 52" version="1.1" xmlns="http://www.w3.org/2000/svg" xmlns:xlink="http://www.w3.org/1999/xlink">
<title>Group 2</title>
<desc>Created using Figma</desc>
<g id="Canvas" transform="translate(-5172 -3941)">
<g id="Group 2">
<g id="Group 2.1" filter="url(#filter0_d)">
<g id="Ellipse">
<use xlink:href="#path0_fill" transform="translate(5237 3942)" fill="#FFFFFF"/>
</g>
<g id="react">
<g id="Union">
<use xlink:href="#path1_fill" transform="translate(5244.69 3952.34)" fill="#44A6B9"/>
</g>
</g>
</g>
<g id="Group 2" filter="url(#filter1_d)">
<g id="Ellipse">
<use xlink:href="#path0_fill" transform="translate(5204.46 3942)" fill="#FFFFFF"/>
</g>
<g id="angular-icon-1">
<g id="Vector">
<use xlink:href="#path2_fill" transform="translate(5213 3950.62)" fill="#E12A2C"/>
</g>
<g id="Vector">
<use xlink:href="#path3_fill" transform="translate(5229.01 3950.62)" fill="#BA2324"/>
</g>
<g id="Vector">
<use xlink:href="#path4_fill" transform="translate(5219.06 3954.65)" fill="#FFFFFF"/>
</g>
</g>
</g>
<g id="Group 2" filter="url(#filter2_d)">
<g id="Ellipse">
<use xlink:href="#path0_fill" transform="translate(5172 3942)" fill="#FFFFFF"/>
</g>
<g id="Vector">
<use xlink:href="#path5_fill" transform="translate(5181 3958)" fill="#404040"/>
</g>
</g>
</g>
</g>
<defs>
<filter id="filter0_d" filterUnits="userSpaceOnUse" x="5237" y="3941" width="53" height="52" color-interpolation-filters="sRGB">
<feFlood flood-opacity="0" result="BackgroundImageFix"/>
<feColorMatrix in="SourceAlpha" type="matrix" values="0 0 0 0 0 0 0 0 0 0 0 0 0 0 0 0 0 0 255 0"/>
<feOffset dx="2" dy="0"/>
<feGaussianBlur stdDeviation="0.5"/>
<feColorMatrix type="matrix" values="0 0 0 0 0 0 0 0 0 0 0 0 0 0 0 0 0 0 0.15 0"/>
<feBlend mode="normal" in2="BackgroundImageFix" result="effect1_dropShadow"/>
<feBlend mode="normal" in="SourceGraphic" in2="effect1_dropShadow" result="shape"/>
</filter>
<filter id="filter1_d" filterUnits="userSpaceOnUse" x="5204" y="3941" width="54" height="52" color-interpolation-filters="sRGB">
<feFlood flood-opacity="0" result="BackgroundImageFix"/>
<feColorMatrix in="SourceAlpha" type="matrix" values="0 0 0 0 0 0 0 0 0 0 0 0 0 0 0 0 0 0 255 0"/>
<feOffset dx="2" dy="0"/>
<feGaussianBlur stdDeviation="0.5"/>
<feColorMatrix type="matrix" values="0 0 0 0 0 0 0 0 0 0 0 0 0 0 0 0 0 0 0.15 0"/>
<feBlend mode="normal" in2="BackgroundImageFix" result="effect1_dropShadow"/>
<feBlend mode="normal" in="SourceGraphic" in2="effect1_dropShadow" result="shape"/>
</filter>
<filter id="filter2_d" filterUnits="userSpaceOnUse" x="5172" y="3941" width="53" height="52" color-interpolation-filters="sRGB">
<feFlood flood-opacity="0" result="BackgroundImageFix"/>
<feColorMatrix in="SourceAlpha" type="matrix" values="0 0 0 0 0 0 0 0 0 0 0 0 0 0 0 0 0 0 255 0"/>
<feOffset dx="2" dy="0"/>
<feGaussianBlur stdDeviation="0.5"/>
<feColorMatrix type="matrix" values="0 0 0 0 0 0 0 0 0 0 0 0 0 0 0 0 0 0 0.15 0"/>
<feBlend mode="normal" in2="BackgroundImageFix" result="effect1_dropShadow"/>
<feBlend mode="normal" in="SourceGraphic" in2="effect1_dropShadow" result="shape"/>
</filter>
<path id="path0_fill" d="M 49.5417 25C 49.5417 38.8071 38.4514 50 24.7708 50C 11.0903 50 0 38.8071 0 25C 0 11.1929 11.0903 0 24.7708 0C 38.4514 0 49.5417 11.1929 49.5417 25Z"/>
<path id="path1_fill" fill-rule="evenodd" d="M 27.3896 10.0589C 27.0352 9.93142 26.6777 9.8135 26.3174 9.7051C 26.377 9.4507 26.4321 9.19558 26.4829 8.93923C 27.2949 4.81325 26.7642 1.48928 24.9517 0.395039C 23.2139 -0.654521 20.3716 0.439717 17.501 3.0552C 17.2183 3.3135 16.9419 3.57937 16.6719 3.85231C 16.4907 3.67092 16.3066 3.49294 16.1196 3.31862C 13.1113 0.521504 10.0962 -0.656963 8.28564 0.440449C 6.54932 1.49294 6.03516 4.61794 6.76611 8.5281C 6.83887 8.9153 6.9209 9.30056 7.01221 9.68337C 6.58545 9.81032 6.17334 9.94558 5.7793 10.0894C 2.25244 11.377 0 13.3948 0 15.4878C 0 17.6497 2.41797 19.8179 6.09131 21.1326C 6.38916 21.2388 6.68994 21.3369 6.99219 21.4273C 6.89404 21.8399 6.80664 22.2551 6.73047 22.6726C 6.03369 26.5149 6.57812 29.5659 8.30957 30.6118C 10.0981 31.6917 13.0996 30.5816 16.0225 27.9065C 16.2534 27.6948 16.4854 27.4707 16.7178 27.2356C 17.0103 27.531 17.3105 27.8179 17.6182 28.0957C 20.4492 30.6467 23.2456 31.677 24.9756 30.6282C 26.7627 29.5452 27.3433 26.2678 26.5894 22.28C 26.5317 21.9756 26.4644 21.6646 26.3892 21.3477C 26.6001 21.2825 26.8071 21.2154 27.0088 21.1453C 30.8276 19.8203 33.3125 17.6785 33.3125 15.4878C 33.3125 13.3872 30.9873 11.3557 27.3896 10.0589ZM 26.561 19.731C 26.3794 19.794 26.1924 19.855 26.002 19.9141C 25.5801 18.5166 25.0112 17.0305 24.3149 15.4951C 24.9795 13.9964 25.5264 12.5293 25.936 11.1406C 26.2769 11.2442 26.6079 11.3528 26.9263 11.468C 30.0093 12.5791 31.8896 14.2219 31.8896 15.4878C 31.8896 16.8362 29.8589 18.5867 26.561 19.731ZM 25.1929 22.5696C 25.5264 24.3328 25.5742 25.927 25.353 27.1734C 25.1548 28.2932 24.7559 29.0396 24.2627 29.3386C 23.2129 29.9749 20.9673 29.148 18.5464 26.9663C 18.269 26.7161 17.9893 26.4492 17.7085 26.1665C 18.6475 25.0916 19.5854 23.8418 20.501 22.4541C 22.1113 22.3045 23.6328 22.0596 25.0127 21.7258C 25.0806 22.013 25.1411 22.2945 25.1929 22.5696ZM 11.3569 29.2288C 10.3311 29.6079 9.51416 29.6189 9.02051 29.3208C 7.96973 28.6863 7.5332 26.2363 8.12891 22.9507C 8.19971 22.5623 8.28076 22.176 8.37207 21.7925C 9.73633 22.1084 11.2471 22.336 12.8613 22.4729C 13.7827 23.8311 14.748 25.0791 15.7207 26.1724C 15.5142 26.3816 15.3022 26.5857 15.0859 26.7842C 13.7935 27.9673 12.4985 28.8064 11.3569 29.2288ZM 6.55176 19.7224C 4.92725 19.1411 3.58594 18.3858 2.6665 17.5613C 1.84033 16.8203 1.42285 16.0847 1.42285 15.4878C 1.42285 14.2178 3.23145 12.5977 6.24756 11.4966C 6.62646 11.3589 7.00879 11.2329 7.39453 11.1187C 7.81104 12.5386 8.35791 14.023 9.01807 15.5242C 8.34961 17.0476 7.79492 18.5557 7.37402 19.992C 7.09814 19.9092 6.82373 19.8194 6.55176 19.7224ZM 8.1626 8.24196C 7.53662 4.89162 7.95215 2.36428 8.99854 1.73024C 10.1128 1.05471 12.5771 2.01784 15.1748 4.43288C 15.3408 4.58718 15.5073 4.7488 15.6743 4.91604C 14.7065 6.00417 13.7505 7.24294 12.8369 8.59304C 11.27 8.74514 9.77051 8.98928 8.3916 9.31643C 8.30664 8.96023 8.23047 8.60207 8.1626 8.24196ZM 22.5322 11.9571C 22.2065 11.3682 21.8687 10.7864 21.519 10.2127C 22.582 10.3533 23.6001 10.5401 24.5566 10.7686C 24.2695 11.732 23.9116 12.7395 23.4902 13.7722C 23.1826 13.1607 22.8628 12.5554 22.5322 11.9571ZM 16.6724 5.98073C 17.3286 6.72536 17.9858 7.5569 18.6323 8.45876C 17.3208 8.39382 16.0068 8.39357 14.6953 8.45778C 15.3423 7.56423 16.0054 6.73391 16.6724 5.98073ZM 10.7749 11.9673C 10.4478 12.5608 10.1343 13.1624 9.83447 13.7713C 9.41992 12.742 9.06543 11.73 8.77588 10.7529C 9.72656 10.53 10.7397 10.3482 11.7959 10.21C 11.4424 10.7874 11.1021 11.3733 10.7749 11.9673ZM 11.8262 20.8721C 10.7354 20.7444 9.70654 20.5718 8.75635 20.355C 9.05029 19.3606 9.4126 18.3269 9.83594 17.2757C 10.1372 17.885 10.4521 18.4868 10.7803 19.0806C 11.1152 19.6863 11.4644 20.2837 11.8262 20.8721ZM 16.7114 25.1001C 16.0371 24.3379 15.3643 23.4951 14.707 22.5884C 15.3452 22.6148 15.9951 22.6279 16.6562 22.6279C 17.3354 22.6279 18.0063 22.6121 18.667 22.5813C 18.0186 23.5044 17.3633 24.3484 16.7114 25.1001ZM 23.5039 17.2222C 23.9492 18.2849 24.3242 19.313 24.6226 20.2905C 23.6567 20.5215 22.6138 20.7073 21.5151 20.8452C 21.8672 20.2608 22.208 19.669 22.5376 19.0703C 22.873 18.4619 23.1948 17.8457 23.5039 17.2222ZM 21.3052 18.3259C 20.8003 19.2437 20.2676 20.1443 19.707 21.0259C 18.7183 21.0999 17.6973 21.138 16.6562 21.138C 15.6196 21.138 14.6113 21.1043 13.6401 21.0383C 13.0649 20.1587 12.522 19.2566 12.0122 18.334C 11.5044 17.4165 11.0303 16.479 10.5908 15.5237C 11.0293 14.5679 11.502 13.6299 12.0078 12.7119C 12.5137 11.7932 13.0522 10.895 13.623 10.0193C 14.6138 9.94094 15.6294 9.89992 16.6562 9.89992C 17.688 9.89992 18.7051 9.94118 19.6953 10.0203C 20.2603 10.8948 20.7959 11.7898 21.3003 12.7036C 21.8081 13.6201 22.2871 14.5535 22.7363 15.5025C 22.2915 16.4612 21.814 17.4029 21.3052 18.3259ZM 24.2407 1.68581C 25.356 2.35964 25.79 5.07595 25.0894 8.63845C 25.0435 8.87063 24.9932 9.10183 24.9395 9.33181C 23.5576 8.99807 22.0566 8.74953 20.4854 8.59523C 19.5698 7.23024 18.6216 5.98928 17.6694 4.91506C 17.9189 4.66335 18.1743 4.41799 18.4355 4.17946C 20.895 1.93825 23.1934 1.05349 24.2407 1.68581ZM 19.6309 15.4881C 19.6309 13.7678 18.2993 12.3733 16.6562 12.3733C 15.0137 12.3733 13.6816 13.7678 13.6816 15.4881C 13.6816 17.2083 15.0137 18.603 16.6562 18.603C 18.2993 18.603 19.6309 17.2083 19.6309 15.4881Z"/>
<path id="path2_fill" d="M 1.8967e-10 5.71538L 16.0135 3.40473e-09L 32.4583 5.61376L 29.7956 26.8368L 16.0135 34.4828L 2.44707 26.9385L 1.8967e-10 5.71538Z"/>
<path id="path3_fill" d="M 16.4448 5.61376L -3.65138e-07 3.40473e-09L -3.65138e-07 34.4828L 13.7821 26.8496L 16.4448 5.61376Z"/>
<path id="path4_fill" d="M 9.9783 -2.21794e-07L 8.93423e-08 22.2392L 3.72756 22.1757L 5.73091 17.1588L 14.6823 17.1588L 16.8758 22.2392L 20.4385 22.3027L 9.9783 -2.21794e-07ZM 10.0038 7.12519L 13.3763 14.1868L 7.03673 14.1868L 10.0038 7.12519Z"/>
<path id="path5_fill" d="M 17.3534 13.2966C 18.2092 14.632 19.3226 15.6137 21.2918 15.6137C 22.9461 15.6137 24.0029 14.8235 24.0029 13.7316C 24.0029 12.4233 22.9171 11.9598 21.0963 11.1987L 20.0982 10.7894C 17.2172 9.61634 15.3033 8.14682 15.3033 5.0402C 15.3033 2.1785 17.5847 0 21.1502 0C 23.6886 0 25.5135 0.84433 26.8286 3.05506L 23.7196 4.96286C 23.0351 3.78982 22.2967 3.32769 21.1502 3.32769C 19.9808 3.32769 19.2397 4.03667 19.2397 4.96286C 19.2397 6.10753 19.9815 6.57095 21.6945 7.27993L 22.6925 7.68856C 26.0847 9.0788 28 10.4961 28 13.6827C 28 17.118 25.1763 19 21.3842 19C 17.6764 19 15.281 17.3113 14.1089 15.098L 17.3534 13.2966ZM 3.24989 13.6272C 3.87707 14.6907 4.4476 15.5898 5.81931 15.5898C 7.131 15.5898 7.95848 15.0993 7.95848 13.1922L 7.95848 0.217848L 11.9509 0.217848L 11.9509 13.2437C 11.9509 17.1947 9.52711 18.9929 5.98926 18.9929C 2.79265 18.9929 0.941448 17.4119 0 15.5076L 3.24989 13.6272Z"/>
</defs>
</svg>
