<svg width="51" height="32" viewBox="0 0 51 32" fill="none" xmlns="http://www.w3.org/2000/svg">
<path d="M48.28 0H2.72C1.21779 0 0 1.21672 0 2.71762V29.2824C0 30.7833 1.21779 32 2.72 32H48.28C49.7822 32 51 30.7833 51 29.2824V2.71762C51 1.21672 49.7822 0 48.28 0Z" fill="#2557D6"/>
<path d="M0.000182988 15.0274H2.44983L3.00217 13.7019H4.23875L4.78965 15.0274H9.60951V14.014L10.0397 15.0318H12.5418L12.9721 13.9989V15.0274H24.9504L24.9447 12.8516H25.1765C25.3388 12.8572 25.3862 12.8721 25.3862 13.1387V15.0274H31.5814V14.5209C32.0811 14.7873 32.8583 15.0274 33.8811 15.0274H36.4874L37.0451 13.7019H38.2817L38.8272 15.0274H43.8497V13.7683L44.6103 15.0274H48.635V6.70422H44.6519V7.6872L44.0941 6.70422H40.007V7.6872L39.4948 6.70422H33.974C33.0499 6.70422 32.2376 6.83256 31.5814 7.19022V6.70422H27.7716V7.19022C27.354 6.82158 26.7851 6.70422 26.1524 6.70422H12.2337L11.2998 8.85397L10.3408 6.70422H5.95676V7.6872L5.47515 6.70422H1.73628L0 10.6615V15.0274H0.0001768H0.000182988ZM15.4632 13.8269H13.9934L13.9879 9.15299L11.909 13.8269H10.6502L8.56579 9.14885V13.8269H5.64974L5.09884 12.4958H2.11368L1.55717 13.8269H3.4e-06L2.56742 7.85915H4.69756L7.13599 13.5094V7.85915H9.476L11.3523 11.9075L13.0759 7.85915H15.463V13.8269H15.4632ZM4.60885 11.2573L3.62755 8.8782L2.65185 11.2573H4.60885ZM21.3125 13.8269H16.5231V7.85915H21.3125V9.10187H17.9568V10.1776H21.232V11.4008H17.9568V12.5926H21.3125V13.8269ZM28.0619 9.46637C28.0619 10.4179 27.4236 10.9094 27.0517 11.057C27.3654 11.1758 27.6333 11.3857 27.7609 11.5596C27.9633 11.8564 27.9982 12.1216 27.9982 12.6545V13.8269H26.5521L26.5467 13.0743C26.5467 12.7152 26.5813 12.1988 26.3204 11.9117C26.1109 11.7018 25.7916 11.6563 25.2754 11.6563H23.7363V13.8269H22.3027V7.85915H25.6003C26.3331 7.85915 26.8729 7.87841 27.3364 8.14499C27.79 8.41157 28.0619 8.80073 28.0619 9.46637ZM26.2495 10.3525C26.0525 10.4715 25.8195 10.4755 25.5403 10.4755H23.7986V9.14994H25.564C25.8139 9.14994 26.0746 9.1611 26.2439 9.25758C26.4299 9.34452 26.545 9.52956 26.545 9.78516C26.545 10.046 26.4355 10.2559 26.2495 10.3525ZM30.3613 13.8269H28.8983V7.85915H30.3613V13.8269ZM47.3435 13.8269H45.3118L42.5942 9.34775V13.8269H39.6744L39.1164 12.4958H36.1381L35.5968 13.8269H33.9192C33.2223 13.8269 32.3399 13.6735 31.8402 13.1668C31.3364 12.6601 31.0742 11.9738 31.0742 10.8885C31.0742 10.0035 31.2309 9.19439 31.8471 8.55503C32.3106 8.07875 33.0365 7.85915 34.0245 7.85915H35.4125V9.13787H34.0536C33.5304 9.13787 33.2349 9.21527 32.9504 9.49139C32.7059 9.74267 32.5382 10.2177 32.5382 10.8432C32.5382 11.4826 32.6659 11.9435 32.9324 12.2447C33.1532 12.4808 33.5543 12.5525 33.9317 12.5525H34.5755L36.5962 7.85933H38.7445L41.1719 13.504V7.85933H43.3548L45.875 12.0155V7.85933H47.3435V13.8269ZM38.6288 11.2573L37.6366 8.8782L36.6499 11.2573H38.6288Z" fill="white"/>
<path d="M50.997 23.3557C50.6487 23.8624 49.9701 24.1193 49.0514 24.1193H46.2826V22.8393H49.0401C49.3137 22.8393 49.5051 22.8035 49.6203 22.6915C49.7202 22.5992 49.7899 22.4651 49.7899 22.3022C49.7899 22.1283 49.7202 21.9902 49.6147 21.9074C49.5107 21.8163 49.3593 21.7749 49.1096 21.7749C47.7634 21.7294 46.0839 21.8163 46.0839 19.9274C46.0839 19.0616 46.6365 18.1503 48.141 18.1503H50.9968L50.997 16.9626H48.3434C47.5427 16.9626 46.961 17.1534 46.5491 17.4501V16.9626H42.6244C41.9968 16.9626 41.2601 17.1174 40.9116 17.4501V16.9626H33.9032V17.4501C33.3454 17.0498 32.4043 16.9626 31.9699 16.9626H27.3471V17.4501C26.9058 17.0249 25.9245 16.9626 25.3264 16.9626H20.1526L18.9687 18.2374L17.8598 16.9626H10.1313V25.2916H17.7144L18.9343 23.9967L20.0835 25.2916L24.7577 25.2957V23.3364H25.2173C25.8375 23.346 26.5689 23.3211 27.2143 23.0436V25.2914H31.0696V23.1206H31.2556C31.493 23.1206 31.5163 23.1303 31.5163 23.3663V25.2912H43.2283C43.9719 25.2912 44.7491 25.1019 45.1795 24.7583V25.2912H48.8945C49.6676 25.2912 50.4225 25.1834 50.997 24.9073V23.3557V23.3557ZM27.7747 20.152C27.7747 21.8102 26.5313 22.1525 25.278 22.1525H23.4891V24.1547H20.7024L18.937 22.1786L17.1023 24.1547H11.4233V18.1855H17.1897L18.9537 20.1421L20.7773 18.1855H25.3586C26.4964 18.1855 27.7747 18.4989 27.7747 20.152ZM16.3762 22.8991H12.8512V21.7115H15.9988V20.4936H12.8512V19.4084H16.4457L18.0139 21.1479L16.3762 22.8991ZM22.056 23.5826L19.8548 21.1512L22.056 18.7969V23.5826ZM25.3114 20.9285H23.4586V19.4084H25.328C25.8456 19.4084 26.2049 19.6182 26.2049 20.1402C26.2049 20.6565 25.8623 20.9285 25.3114 20.9285ZM35.0179 18.1855H39.803V19.4199H36.4457V20.5052H39.7211V21.723H36.4457V22.9107L39.803 22.9161V24.1547H35.0179V18.1855ZM33.1783 21.3807C33.4974 21.4979 33.7583 21.7079 33.8806 21.8818C34.0831 22.1732 34.1124 22.4452 34.1182 22.9714V24.1547H32.6788V23.4078C32.6788 23.0487 32.7135 22.517 32.447 22.2395C32.2375 22.0256 31.9182 21.9745 31.3952 21.9745H29.863V24.1547H28.4223V18.1855H31.7324C32.4582 18.1855 32.9869 18.2174 33.4575 18.4672C33.9099 18.7392 34.1945 19.1118 34.1945 19.7927C34.1943 20.7455 33.5557 21.2316 33.1783 21.3807ZM32.3679 20.6261C32.1761 20.7393 31.9389 20.749 31.6599 20.749H29.9182V19.4084H31.6836C31.9389 19.4084 32.1944 19.4138 32.3679 19.5162C32.5537 19.6128 32.6647 19.7977 32.6647 20.0531C32.6647 20.3085 32.5537 20.5143 32.3679 20.6261ZM45.3107 21.0063C45.5899 21.2937 45.7395 21.6566 45.7395 22.271C45.7395 23.5551 44.9331 24.1545 43.4872 24.1545H40.6948V22.8745H43.476C43.748 22.8745 43.9408 22.8387 44.0617 22.7267C44.1603 22.6344 44.231 22.5003 44.231 22.3374C44.231 22.1635 44.1545 22.0254 44.0561 21.9426C43.9464 21.8516 43.7952 21.8102 43.5455 21.8102C42.2047 21.7646 40.5256 21.8516 40.5256 19.9626C40.5256 19.0968 41.0723 18.1855 42.5754 18.1855H45.4497V19.4559H42.8197C42.559 19.4559 42.3894 19.4657 42.2452 19.5638C42.0882 19.6604 42.0299 19.8039 42.0299 19.9932C42.0299 20.2184 42.1633 20.3716 42.3437 20.4378C42.4949 20.4902 42.6574 20.5055 42.9016 20.5055L43.6734 20.5262C44.4517 20.5451 44.986 20.679 45.3107 21.0063ZM50.9999 19.4084H48.3869C48.126 19.4084 47.9527 19.4181 47.8067 19.5162C47.6555 19.6128 47.5972 19.7563 47.5972 19.9457C47.5972 20.1708 47.7249 20.324 47.9107 20.3903C48.062 20.4426 48.2244 20.4579 48.4633 20.4579L49.2403 20.4786C50.0244 20.4979 50.5478 20.632 50.8669 20.9591C50.925 21.0046 50.9599 21.0557 50.9999 21.1068V19.4084Z" fill="white"/>
</svg>
