<svg width="51" height="32" viewBox="0 0 51 32" fill="none" xmlns="http://www.w3.org/2000/svg">
<path d="M48.28 0H2.72C1.21779 0 0 1.21672 0 2.71762V29.2824C0 30.7833 1.21779 32 2.72 32H48.28C49.7822 32 51 30.7833 51 29.2824V2.71762C51 1.21672 49.7822 0 48.28 0Z" fill="#0079BE"/>
<path d="M39.7756 16.1663C39.7756 9.41194 34.1329 4.74324 27.9508 4.74548H22.6303C16.3741 4.74324 11.2246 9.41333 11.2246 16.1663C11.2246 22.3442 16.3741 27.42 22.6303 27.3903H27.9508C34.1329 27.4199 39.7756 22.3428 39.7756 16.1663Z" fill="white"/>
<path d="M22.6631 5.70227C16.9463 5.70407 12.3138 10.3431 12.3125 16.0686C12.3138 21.7931 16.9463 26.4317 22.6631 26.4335C28.3812 26.4317 33.0146 21.7931 33.0154 16.0686C33.0145 10.3431 28.3812 5.70407 22.6631 5.70227Z" fill="#0079BE"/>
<path d="M16.1206 16.0406C16.126 13.2428 17.8714 10.857 20.3325 9.90894V22.1708C17.8714 21.2233 16.1259 18.8388 16.1206 16.0406ZM25.0286 22.1739V9.90894C27.4907 10.8547 29.2388 13.2419 29.2432 16.041C29.2388 18.841 27.4907 21.2264 25.0286 22.1739Z" fill="white"/>
</svg>
