<svg width="51" height="32" viewBox="0 0 51 32" fill="none" xmlns="http://www.w3.org/2000/svg">
<path d="M48.28 0H2.72C1.21779 0 0 1.21672 0 2.71762V29.2824C0 30.7833 1.21779 32 2.72 32H48.28C49.7822 32 51 30.7833 51 29.2824V2.71762C51 1.21672 49.7822 0 48.28 0Z" fill="#0E4C96"/>
<path d="M41.9724 23.5595C41.9724 26.3868 39.6789 28.6795 36.848 28.6795H9.02734V8.4413C9.02734 5.61319 11.3212 3.32059 14.1522 3.32059L41.9724 3.32056L41.9724 23.5595H41.9724Z" fill="white"/>
<path d="M32.9026 16.4447C33.6971 16.4619 34.4963 16.4097 35.2878 16.4719C36.0894 16.6214 36.2825 17.8336 35.5705 18.2307C35.0848 18.4923 34.5074 18.328 33.9807 18.3743H32.9026V16.4447ZM35.7472 14.2608C35.9238 14.8834 35.3231 15.4424 34.7228 15.3567H32.9026C32.9152 14.7695 32.8776 14.1323 32.9211 13.576C33.6503 13.5965 34.3864 13.5342 35.1113 13.6087C35.4229 13.6868 35.6835 13.9427 35.7472 14.2608ZM40.1284 5.02747C40.1622 6.21651 40.1332 7.46833 40.1429 8.68151C40.1405 13.6137 40.1478 18.5461 40.1392 23.4782C40.1073 25.3267 38.4676 26.9326 36.6304 26.9695C34.7912 26.9771 32.9519 26.9706 31.1127 26.9728V19.5162C33.1167 19.5058 35.1219 19.5371 37.125 19.5005C38.0544 19.4421 39.072 18.8295 39.1154 17.8078C39.2249 16.7817 38.2565 16.0719 37.337 15.9597C36.9835 15.9505 36.994 15.8568 37.337 15.8159C38.2137 15.6266 38.9024 14.7198 38.6444 13.8117C38.4243 12.8566 37.3678 12.4869 36.489 12.4887C34.6971 12.4766 32.9048 12.487 31.1127 12.4835C31.1244 11.0915 31.0886 9.69793 31.1321 8.30697C31.2741 6.49187 32.9549 4.99501 34.7665 5.0275C36.5538 5.02748 38.3412 5.02754 40.1284 5.02747Z" fill="url(#paint0_linear)"/>
<path d="M10.8621 8.49529C10.9079 6.64976 12.5545 5.05672 14.3896 5.02978C16.2218 5.02417 18.0542 5.02899 19.8865 5.02738C19.8814 11.2022 19.8966 17.3774 19.8789 23.5519C19.8083 25.375 18.1796 26.9376 16.3647 26.9698C14.529 26.9765 12.6931 26.9707 10.8573 26.9727V19.2646C12.6404 19.6854 14.5104 19.8646 16.3294 19.5853C17.4169 19.4104 18.6066 18.8771 18.9748 17.75C19.2458 16.7858 19.0932 15.7711 19.1335 14.7816V12.4835H15.9853C15.9711 14.0033 16.0143 15.5259 15.9625 17.044C15.8776 17.9771 14.953 18.57 14.0721 18.5384C12.9796 18.5498 10.815 17.7475 10.815 17.7475C10.8095 14.8997 10.8467 11.3334 10.8621 8.49529Z" fill="url(#paint1_linear)"/>
<path d="M21.0609 13.4109C20.8954 13.446 21.0275 12.8469 20.9851 12.6196C20.9964 11.1826 20.9616 9.74415 21.0044 8.30822C21.1461 6.48546 22.8398 4.98486 24.6587 5.0275H30.0148C30.0097 11.2023 30.0248 17.3774 30.0072 23.5519C29.9365 25.375 28.3077 26.9376 26.4929 26.9699C24.657 26.9767 22.821 26.9709 20.9851 26.9728V18.528C22.2391 19.5558 23.9431 19.7159 25.5052 19.7187C26.6828 19.7183 27.8535 19.5369 28.997 19.2655V17.7183C27.7082 18.3601 26.1932 18.7677 24.7645 18.3989C23.7679 18.1509 23.0445 17.1888 23.0607 16.1612C22.9452 15.0926 23.5723 13.9643 24.6234 13.6467C25.9284 13.2384 27.3507 13.5507 28.574 14.0813C28.836 14.2184 29.1019 14.3885 28.997 13.9508V12.7347C26.9513 12.2484 24.7741 12.0695 22.7187 12.5985C22.1238 12.7662 21.5442 13.0205 21.0609 13.4109Z" fill="url(#paint2_linear)"/>
<defs>
<linearGradient id="paint0_linear" x1="31.1127" y1="16.0001" x2="40.143" y2="16.0001" gradientUnits="userSpaceOnUse">
<stop stop-color="#007B40"/>
<stop offset="1" stop-color="#55B330"/>
</linearGradient>
<linearGradient id="paint1_linear" x1="10.8573" y1="16" x2="19.8865" y2="16" gradientUnits="userSpaceOnUse">
<stop stop-color="#1D2970"/>
<stop offset="1" stop-color="#006DBA"/>
</linearGradient>
<linearGradient id="paint2_linear" x1="20.9851" y1="16.0001" x2="30.0148" y2="16.0001" gradientUnits="userSpaceOnUse">
<stop stop-color="#6E2B2F"/>
<stop offset="1" stop-color="#E30138"/>
</linearGradient>
</defs>
</svg>
