<svg width="51" height="32" viewBox="0 0 51 32" fill="none" xmlns="http://www.w3.org/2000/svg">
<path d="M48.28 0H2.72C1.21779 0 0 1.21672 0 2.71762V29.2824C0 30.7833 1.21779 32 2.72 32H48.28C49.7822 32 51 30.7833 51 29.2824V2.71762C51 1.21672 49.7822 0 48.28 0Z" fill="black"/>
<path d="M15.0363 28.6483V26.9599C15.0363 26.3125 14.6419 25.8906 13.9945 25.8906C13.6545 25.8906 13.2907 26.0033 13.0371 26.3661C12.8399 26.0563 12.5611 25.8906 12.1361 25.8906C11.8151 25.8767 11.5086 26.0247 11.3201 26.2846V25.9449H10.7849V28.6462H11.3201V27.1006C11.3201 26.625 11.6016 26.3974 11.996 26.3974C12.3904 26.3974 12.6155 26.6508 12.6155 27.1006V28.6483H13.1506V27.1006C13.1506 26.625 13.4322 26.3974 13.8266 26.3974C14.221 26.3974 14.446 26.6508 14.446 27.1006V28.6483H15.0363ZM23.8232 25.9748H22.8372V25.1595H22.3034V25.9748H21.7404V26.4504H22.3034V27.7195C22.3034 28.3385 22.5285 28.7047 23.2044 28.7047C23.4605 28.6993 23.7114 28.6317 23.9354 28.5076L23.7661 28.032C23.6142 28.1269 23.438 28.1758 23.2588 28.1727C22.9773 28.1727 22.8366 28.0035 22.8366 27.7222V26.4286H23.8226V25.9782L23.8232 25.9748ZM28.8362 25.8906C28.5397 25.884 28.2615 26.0336 28.1038 26.2846V25.9449H27.5687V28.6462H28.1038V27.1291C28.1038 26.6787 28.3289 26.3974 28.6954 26.3974C28.8191 26.4024 28.9418 26.4213 29.0613 26.4538L29.2306 25.9469C29.1015 25.9144 28.9693 25.8955 28.8362 25.8906ZM21.2603 26.1718C20.9788 25.9748 20.5844 25.8906 20.1621 25.8906C19.4862 25.8906 19.0639 26.2004 19.0639 26.7351C19.0639 27.1855 19.374 27.4382 19.9649 27.5232L20.2464 27.551C20.5565 27.6074 20.7537 27.7202 20.7537 27.8608C20.7537 28.0579 20.5286 28.2005 20.1057 28.2005C19.7827 28.2072 19.4664 28.1084 19.2047 27.9193L18.9232 28.3412C19.3176 28.6224 19.7963 28.6809 20.0792 28.6809C20.868 28.6809 21.2902 28.3154 21.2902 27.8085C21.2902 27.3329 20.9502 27.1053 20.3607 27.0204L20.0792 26.9926C19.8255 26.9647 19.6032 26.8798 19.6032 26.7113C19.6032 26.5143 19.8282 26.3716 20.1383 26.3716C20.4783 26.3716 20.8142 26.5122 20.9836 26.5965L21.2603 26.1718ZM29.4278 27.2976C29.4278 28.1129 29.963 28.7047 30.8361 28.7047C31.2305 28.7047 31.512 28.6204 31.7935 28.3948L31.512 27.9729C31.3127 28.1342 31.0647 28.2235 30.8082 28.2264C30.3322 28.2264 29.963 27.8608 29.963 27.3261C29.963 26.7914 30.3274 26.4286 30.8082 26.4286C31.0647 26.4315 31.3127 26.5208 31.512 26.6821L31.7935 26.2602C31.512 26.0353 31.2305 25.9503 30.8361 25.9503C29.9908 25.894 29.4278 26.485 29.4278 27.301V27.2976ZM25.6538 25.8906C24.865 25.8906 24.3298 26.4531 24.3298 27.2976C24.3298 28.1421 24.8929 28.7047 25.7096 28.7047C26.1069 28.713 26.4949 28.5839 26.8078 28.3391L26.5262 27.9451C26.2999 28.1203 26.0236 28.2188 25.7374 28.2264C25.3716 28.2264 24.9772 28.0015 24.9214 27.5232H26.9213V27.2983C26.9213 26.4538 26.414 25.8912 25.6538 25.8912V25.8906ZM25.6259 26.3974C26.0203 26.3974 26.3018 26.6508 26.3297 27.0727H24.8657C24.95 26.6787 25.2057 26.3974 25.6259 26.3974ZM18.3316 27.2976V25.9469H17.7964V26.2866C17.5992 26.0332 17.3204 25.8926 16.9233 25.8926C16.163 25.8926 15.5993 26.4837 15.5993 27.2996C15.5993 28.1156 16.1624 28.7067 16.9233 28.7067C17.3177 28.7067 17.5992 28.5661 17.7964 28.3126V28.6523H18.3316V27.2976ZM16.163 27.2976C16.163 26.7908 16.4731 26.3974 17.0083 26.3974C17.5156 26.3974 17.8243 26.7914 17.8243 27.2976C17.8243 27.8323 17.4843 28.1978 17.0083 28.1978C16.4731 28.2257 16.163 27.8038 16.163 27.2976ZM36.9765 25.8906C36.68 25.884 36.4018 26.0336 36.2441 26.2846V25.9449H35.709V28.6462H36.2434V27.1291C36.2434 26.6787 36.4685 26.3974 36.835 26.3974C36.9587 26.4024 37.0814 26.4213 37.2009 26.4538L37.3702 25.9469C37.2411 25.9144 37.1089 25.8955 36.9758 25.8906H36.9765ZM34.8923 27.2976V25.9469H34.3571V26.2866C34.1599 26.0332 33.8811 25.8926 33.484 25.8926C32.7238 25.8926 32.16 26.4837 32.16 27.2996C32.16 28.1156 32.7231 28.7067 33.484 28.7067C33.8784 28.7067 34.1599 28.5661 34.3571 28.3126V28.6523H34.8923V27.2976ZM32.7238 27.2976C32.7238 26.7908 33.0338 26.3974 33.569 26.3974C34.0763 26.3974 34.385 26.7914 34.385 27.2976C34.385 27.8323 34.045 28.1978 33.569 28.1978C33.0338 28.2257 32.7238 27.8038 32.7238 27.2976ZM40.3282 27.2976V24.8776H39.793V26.2846C39.5958 26.0312 39.317 25.8906 38.9199 25.8906C38.1597 25.8906 37.596 26.4816 37.596 27.2976C37.596 28.1136 38.159 28.7047 38.9199 28.7047C39.3143 28.7047 39.5958 28.564 39.793 28.3106V28.6503H40.3282V27.2976ZM38.1597 27.2976C38.1597 26.7908 38.4698 26.3974 39.0049 26.3974C39.5122 26.3974 39.8209 26.7914 39.8209 27.2976C39.8209 27.8323 39.4809 28.1978 39.0049 28.1978C38.4691 28.2264 38.159 27.8044 38.159 27.2976H38.1597Z" fill="white"/>
<path d="M30.4141 5.46191H20.6411V21.3885H30.4141V5.46191Z" fill="#FF5F00"/>
<path d="M21.6271 13.425C21.6278 10.321 23.049 7.38766 25.4854 5.4617C21.3287 2.19639 15.3583 2.67103 11.7708 6.55201C8.18318 10.433 8.18318 16.417 11.7708 20.298C15.3583 24.179 21.3287 24.6536 25.4854 21.3883C23.049 19.4624 21.6278 16.529 21.6271 13.425Z" fill="#EB001B"/>
<path d="M41.9053 13.4253C41.9082 17.301 39.6951 20.838 36.2066 22.5331C32.7182 24.2282 28.5671 23.7838 25.5173 21.3886C27.9543 19.4631 29.3758 16.5295 29.3758 13.4253C29.3758 10.321 27.9543 7.38742 25.5173 5.46195C28.5671 3.06674 32.7182 2.62227 36.2066 4.3174C39.6951 6.01253 41.9082 9.54947 41.9053 13.4253Z" fill="#F79E1B"/>
</svg>
