<svg width="51" height="32" viewBox="0 0 51 32" fill="none" xmlns="http://www.w3.org/2000/svg">
<path d="M48.28 0H2.72C1.21779 0 0 1.21672 0 2.71762V29.2824C0 30.7833 1.21779 32 2.72 32H48.28C49.7822 32 51 30.7833 51 29.2824V2.71762C51 1.21672 49.7822 0 48.28 0Z" fill="white"/>
<path d="M13.7232 3.73669H23.4059C24.757 3.73669 25.6015 4.85135 25.2848 6.2145L20.7741 25.7459C20.4575 27.109 19.0994 28.2237 17.7483 28.2237H8.0655C6.71442 28.2237 5.86999 27.109 6.18665 25.7459L10.6973 6.2145C11.014 4.84425 12.365 3.73669 13.7161 3.73669H13.7232Z" fill="#D10429"/>
<path d="M22.559 3.73669H33.6984C35.0495 3.73669 34.4372 4.85135 34.1206 6.2145L29.6099 25.7459C29.2933 27.109 29.3918 28.2237 28.0407 28.2237H16.9013C15.5432 28.2237 14.7058 27.109 15.0295 25.7459L19.5401 6.2145C19.8568 4.84425 21.2079 3.73669 22.566 3.73669H22.559Z" fill="#022E64"/>
<path d="M33.3075 3.73669H42.9903C44.3414 3.73669 45.1858 4.85135 44.8691 6.2145L40.3585 25.7459C40.0418 27.109 38.6837 28.2237 37.3326 28.2237H27.6499C26.2917 28.2237 25.4543 27.109 25.771 25.7459L30.2817 6.2145C30.5983 4.84425 31.9494 3.73669 33.3005 3.73669H33.3075Z" fill="#076F74"/>
<path d="M31.6817 22.1496H32.5965L32.8568 21.2622H31.9491L31.6817 22.1496ZM32.4135 19.7073L32.0969 20.7581C32.0969 20.7581 32.4417 20.5806 32.6317 20.5238C32.8217 20.4812 33.1031 20.4457 33.1031 20.4457L33.3213 19.7144H32.4065L32.4135 19.7073ZM32.8709 18.2022L32.5683 19.2104C32.5683 19.2104 32.9061 19.0542 33.0961 19.0045C33.2861 18.9548 33.5676 18.9406 33.5676 18.9406L33.7857 18.2093H32.8779L32.8709 18.2022ZM34.8905 18.2022L33.7083 22.1425H34.025L33.7787 22.959H33.462L33.3846 23.2075H32.2587L32.3361 22.959H30.0562L30.2813 22.2064H30.5136L31.7098 18.2022L31.9491 17.3928H33.0961L32.9765 17.7975C32.9765 17.7975 33.2791 17.5774 33.5746 17.4993C33.8631 17.4212 35.5238 17.3928 35.5238 17.3928L35.2775 18.1951H34.8835L34.8905 18.2022Z" fill="#FEFEFE"/>
<path d="M35.3601 17.3928H36.5845L36.5986 17.8543C36.5916 17.9324 36.6549 17.9679 36.8027 17.9679H37.049L36.8238 18.7276H36.1623C35.5923 18.7702 35.3742 18.5217 35.3882 18.2448L35.3671 17.3999L35.3601 17.3928ZM35.5108 21.0073H34.3427L34.5397 20.3328H35.8767L36.0667 19.7151H34.7508L34.976 18.9555H38.6352L38.41 19.7151H37.1785L36.9885 20.3328H38.22L38.0159 21.0073H36.686L36.4467 21.2913H36.9885L37.1222 22.1432C37.1363 22.2284 37.1363 22.2852 37.1645 22.3207C37.1926 22.3491 37.3545 22.3633 37.4459 22.3633H37.6078L37.3545 23.194H36.9393C36.876 23.194 36.7774 23.1869 36.6437 23.1869C36.5171 23.1727 36.4326 23.1017 36.3482 23.0591C36.2708 23.0236 36.1582 22.9313 36.13 22.768L36.0034 21.916L35.3982 22.7538C35.2082 23.0165 34.9478 23.2224 34.5045 23.2224H33.6601L33.8853 22.484H34.209C34.3005 22.484 34.3849 22.4485 34.4482 22.413C34.5116 22.3846 34.5679 22.3562 34.6242 22.2639L35.5108 21.0073ZM22.7334 19.1593H25.8226L25.5974 19.9047H24.366L24.176 20.5366H25.4426L25.2104 21.3034H23.9508L23.6412 22.3329C23.606 22.4465 23.9438 22.4607 24.0634 22.4607L24.6967 22.3755L24.4434 23.2274H23.0219C22.9093 23.2274 22.8249 23.2132 22.6982 23.1848C22.5786 23.1564 22.5223 23.0996 22.4731 23.0215C22.4238 22.9363 22.3394 22.8724 22.3956 22.6878L22.8038 21.3247H22.1001L22.3323 20.5437H23.036L23.226 19.9118H22.5223L22.7475 19.1664L22.7334 19.1593ZM24.8678 17.8117H26.1344L25.9022 18.5856H24.1711L23.9811 18.7489C23.8967 18.827 23.8756 18.7986 23.77 18.8554C23.6715 18.9051 23.4674 19.0045 23.2 19.0045H22.6441L22.8693 18.259H23.0382C23.1789 18.259 23.2774 18.2448 23.3267 18.2164C23.383 18.1809 23.4463 18.1028 23.5096 17.975L23.8263 17.3928H25.0859L24.8678 17.8188V17.8117ZM27.2551 19.0897C27.2551 19.0897 27.5999 18.7702 28.191 18.6708C28.3247 18.6424 29.1691 18.6566 29.1691 18.6566L29.2958 18.2306H27.5155L27.2551 19.0968V19.0897ZM28.9299 19.4162H27.1636L27.0581 19.7783H28.5921C28.7751 19.757 28.8102 19.7854 28.8243 19.7712L28.9369 19.4162H28.9299ZM26.6358 17.3999H27.7125L27.5577 17.9466C27.5577 17.9466 27.8954 17.6697 28.1347 17.5703C28.374 17.4851 28.9088 17.3999 28.9088 17.3999L30.6539 17.3928L30.0558 19.3949C29.9573 19.7357 29.8376 19.9558 29.7673 20.0623C29.7039 20.1617 29.6265 20.254 29.4717 20.3392C29.3239 20.4173 29.1902 20.467 29.0636 20.4741C28.951 20.4812 28.768 20.4883 28.5288 20.4883H26.847L26.3755 22.0715C26.3333 22.2277 26.3121 22.3058 26.3403 22.3484C26.3614 22.3839 26.4247 22.4265 26.5021 22.4265L27.241 22.3555L26.9877 23.2217H26.1573C25.8899 23.2217 25.6999 23.2146 25.5662 23.2075C25.4396 23.1933 25.3059 23.2075 25.2144 23.1365C25.137 23.0655 25.0174 22.9732 25.0244 22.8809C25.0314 22.7957 25.0666 22.6537 25.1229 22.4549L26.6358 17.3999Z" fill="#FEFEFE"/>
<path d="M29.7733 20.586L29.6748 21.0688C29.6326 21.2179 29.5974 21.3315 29.4848 21.4309C29.3652 21.5303 29.2315 21.6368 28.9078 21.6368L28.3096 21.6652L28.3026 22.2048C28.2956 22.3539 28.3378 22.3397 28.3589 22.3681C28.387 22.3965 28.4081 22.4036 28.4363 22.4178L28.6263 22.4036L29.1963 22.3752L28.957 23.1703H28.3026C27.8452 23.1703 27.5004 23.1561 27.3948 23.0709C27.2822 22.9999 27.2682 22.9147 27.2682 22.7586L27.3104 20.6428H28.3589L28.3448 21.0759H28.5981C28.6826 21.0759 28.7459 21.0688 28.7811 21.0475C28.8163 21.0262 28.8374 20.9907 28.8515 20.941L28.957 20.6002H29.7803L29.7733 20.586ZM14.8562 9.9873C14.821 10.1577 14.1454 13.2887 14.1454 13.2887C13.9977 13.9206 13.8921 14.3749 13.5403 14.666C13.3362 14.8364 13.0969 14.9145 12.8225 14.9145C12.3792 14.9145 12.1258 14.6944 12.0836 14.2755L12.0766 14.1336C12.0766 14.1336 12.2103 13.2887 12.2103 13.2816C12.2103 13.2816 12.914 10.4275 13.0406 10.0512C13.0477 10.0299 13.0477 10.0157 13.0477 10.0086C11.6755 10.0228 11.4292 10.0086 11.4151 9.9873C11.4081 10.0157 11.3729 10.1932 11.3729 10.1932L10.6551 13.4094L10.5918 13.6792L10.4722 14.5737C10.4722 14.8364 10.5214 15.0565 10.627 15.234C10.9577 15.8162 11.8936 15.9014 12.4214 15.9014C13.104 15.9014 13.7443 15.7523 14.1736 15.4896C14.9265 15.0423 15.1236 14.3394 15.2924 13.7218L15.3769 13.4023C15.3769 13.4023 16.1017 10.4417 16.2283 10.0583C16.2354 10.037 16.2354 10.0228 16.2424 10.0157C15.2432 10.0228 14.9547 10.0157 14.8562 9.9944V9.9873ZM18.8701 15.8725C18.3846 15.8654 18.2086 15.8654 17.6386 15.8938L17.6175 15.8512C17.6668 15.6311 17.7231 15.4181 17.7653 15.198L17.8357 14.8998C17.9412 14.4383 18.0397 13.8917 18.0538 13.7284C18.0679 13.629 18.096 13.3805 17.8146 13.3805C17.6949 13.3805 17.5753 13.4373 17.4487 13.4941C17.3783 13.7426 17.2446 14.4383 17.1742 14.7507C17.0335 15.4181 17.0264 15.4962 16.9631 15.8228L16.9209 15.8654C16.4213 15.8583 16.2453 15.8583 15.6683 15.8867L15.6402 15.837C15.7387 15.4394 15.8302 15.0418 15.9216 14.6442C16.1609 13.5722 16.2242 13.1604 16.2876 12.6137L16.3368 12.5853C16.8998 12.5072 17.0335 12.4859 17.6457 12.3652L17.6949 12.422L17.6035 12.7628C17.709 12.6989 17.8075 12.635 17.9131 12.5853C18.2016 12.4433 18.5183 12.4007 18.6942 12.4007C18.9616 12.4007 19.2571 12.4788 19.3768 12.7912C19.4894 13.0681 19.419 13.4089 19.2642 14.0834L19.1868 14.4241C19.032 15.1767 19.0038 15.3116 18.9194 15.8228L18.8631 15.8654L18.8701 15.8725ZM20.8461 15.8744C20.5506 15.8744 20.3606 15.8673 20.1776 15.8744C19.9947 15.8744 19.8188 15.8886 19.5443 15.8957L19.5302 15.8744L19.5162 15.846C19.5936 15.562 19.6288 15.4626 19.671 15.3632C19.7062 15.2638 19.7413 15.1644 19.8117 14.8733C19.8962 14.497 19.9525 14.2343 19.9876 14C20.0299 13.7799 20.051 13.5883 20.0791 13.3682L20.1002 13.354L20.1213 13.3327C20.4169 13.2901 20.5998 13.2617 20.7898 13.2333C20.9798 13.2049 21.1769 13.1694 21.4795 13.1126L21.4935 13.141L21.5006 13.1694C21.4443 13.4037 21.388 13.638 21.3317 13.8722C21.2754 14.1065 21.2191 14.3408 21.1698 14.5751C21.0643 15.0721 21.015 15.2567 20.9939 15.3916C20.9658 15.5194 20.9587 15.5833 20.9165 15.8389L20.8884 15.8602L20.8602 15.8815L20.8461 15.8744ZM23.9701 14.13C23.949 14.2578 23.8364 14.7335 23.6886 14.9323C23.5831 15.0814 23.4635 15.1737 23.3227 15.1737C23.2805 15.1737 23.0412 15.1737 23.0342 14.8116C23.0342 14.6341 23.0694 14.4495 23.1116 14.2507C23.2383 13.6756 23.3931 13.1999 23.7801 13.1999C24.0827 13.1999 24.1038 13.5549 23.9701 14.13ZM25.2438 14.1868C25.4127 13.4342 25.279 13.0792 25.1171 12.8662C24.8638 12.5397 24.4134 12.4332 23.949 12.4332C23.6675 12.4332 23.0061 12.4616 22.4853 12.9443C22.1124 13.2922 21.9365 13.7679 21.8379 14.2223C21.7324 14.6838 21.6128 15.5145 22.3727 15.8268C22.605 15.9262 22.9427 15.9546 23.1609 15.9546C23.7168 15.9546 24.2868 15.7984 24.716 15.3441C25.0468 14.9749 25.1945 14.4211 25.2508 14.1868H25.2438ZM37.1052 15.9587C36.5141 15.9516 36.3452 15.9516 35.8033 15.98L35.7682 15.9374C35.9159 15.3765 36.0637 14.8085 36.1974 14.2405C36.3663 13.5022 36.4085 13.1898 36.4648 12.7567L36.507 12.7212C37.0911 12.636 37.253 12.6147 37.8652 12.5011L37.8792 12.5508C37.7666 13.0194 37.6611 13.4809 37.5485 13.9424C37.3233 14.915 37.2459 15.412 37.1615 15.9232L37.1052 15.9658V15.9587Z" fill="#FEFEFE"/>
<path d="M36.2548 14.225C36.2267 14.3457 36.1141 14.8285 35.9663 15.0273C35.8678 15.1693 35.6285 15.2616 35.4948 15.2616C35.4526 15.2616 35.2204 15.2616 35.2063 14.9066C35.2063 14.7291 35.2415 14.5445 35.2837 14.3457C35.4104 13.7848 35.5652 13.3091 35.9522 13.3091C36.2548 13.3091 36.3885 13.657 36.2548 14.2321V14.225ZM37.4159 14.2818C37.5848 13.5292 36.8952 14.2179 36.7896 13.9694C36.6207 13.5789 36.7263 12.798 36.0507 12.5353C35.7904 12.4288 35.1782 12.5637 34.6574 13.0465C34.2915 13.3872 34.1086 13.8629 34.01 14.3173C33.9045 14.7717 33.7849 15.6095 34.5378 15.9006C34.7771 16.007 34.9952 16.0354 35.2133 16.0212C35.9733 15.9786 36.5504 14.8214 36.9796 14.367C37.3103 14.0049 37.3666 14.5019 37.4159 14.2818ZM28.5798 15.8725C28.0942 15.8654 27.9254 15.8654 27.3554 15.8938L27.3343 15.8512C27.3835 15.6311 27.4398 15.4181 27.4891 15.198L27.5524 14.8998C27.658 14.4383 27.7635 13.8917 27.7705 13.7284C27.7846 13.629 27.8128 13.3805 27.5383 13.3805C27.4187 13.3805 27.292 13.4373 27.1724 13.4941C27.1091 13.7426 26.9683 14.4383 26.898 14.7507C26.7643 15.4181 26.7502 15.4962 26.6869 15.8228L26.6446 15.8654C26.145 15.8583 25.9691 15.8583 25.3921 15.8867L25.3639 15.837C25.4624 15.4394 25.5539 15.0418 25.6454 14.6442C25.8847 13.5722 25.941 13.1604 26.0113 12.6137L26.0535 12.5853C26.6165 12.5072 26.7572 12.4859 27.3624 12.3652L27.4117 12.422L27.3272 12.7628C27.4257 12.6989 27.5313 12.635 27.6298 12.5853C27.9183 12.4433 28.235 12.4007 28.4109 12.4007C28.6783 12.4007 28.9668 12.4788 29.0935 12.7912C29.2061 13.0681 29.1287 13.4089 28.9739 14.0834L28.8965 14.4241C28.7346 15.1767 28.7135 15.3116 28.629 15.8228L28.5728 15.8654L28.5798 15.8725ZM32.7959 9.9944L32.3877 10.0015C31.3322 10.0157 30.91 10.0086 30.7411 9.9873C30.727 10.0654 30.6989 10.2003 30.6989 10.2003C30.6989 10.2003 30.3189 11.961 30.3189 11.9681C30.3189 11.9681 29.4182 15.7168 29.3759 15.8943C30.2978 15.8801 30.6707 15.8801 30.8326 15.9014C30.8678 15.7239 31.0789 14.6802 31.0859 14.6802C31.0859 14.6802 31.2689 13.9135 31.2759 13.8851C31.2759 13.8851 31.3322 13.807 31.3885 13.7715H31.4729C32.2681 13.7715 33.1618 13.7715 33.8655 13.2532C34.344 12.8982 34.6677 12.3657 34.8154 11.7267C34.8506 11.5705 34.8788 11.386 34.8788 11.1943C34.8788 10.9458 34.8295 10.7044 34.6888 10.5127C34.3299 10.0086 33.6192 10.0015 32.7959 9.9944ZM33.3236 11.8332C33.2392 12.2237 32.9859 12.5574 32.6622 12.7136C32.3948 12.8485 32.0711 12.8627 31.7333 12.8627H31.5151L31.5292 12.7775C31.5292 12.7775 31.9303 11.0168 31.9303 11.0239L31.9444 10.9316L31.9514 10.8606L32.1133 10.8748C32.1133 10.8748 32.9436 10.9458 32.9577 10.9458C33.2814 11.0736 33.4221 11.4002 33.3236 11.8332ZM41.9737 12.422L41.9244 12.3652C41.3263 12.4859 41.2137 12.5072 40.6648 12.5853L40.6226 12.6279C40.6226 12.635 40.6156 12.6421 40.6156 12.6563V12.6492C40.2074 13.6077 40.2145 13.4018 39.8837 14.1544C39.8837 14.1189 39.8837 14.0976 39.8767 14.0621L39.7923 12.4291L39.743 12.3723C39.1097 12.493 39.0956 12.5143 38.5186 12.5924L38.4764 12.635C38.4693 12.6563 38.4693 12.6776 38.4693 12.6989L38.4764 12.706C38.5467 13.0823 38.5327 12.9971 38.603 13.5864C38.6382 13.8775 38.6804 14.1686 38.7156 14.4525C38.7719 14.9353 38.8071 15.1696 38.8775 15.9009C38.4834 16.5541 38.3919 16.8026 38.0119 17.3776L38.033 17.4344C38.603 17.4131 38.7297 17.4131 39.1519 17.4131L39.2434 17.3066C39.56 16.618 41.9807 12.4291 41.9807 12.4291L41.9737 12.422ZM21.3889 12.8923C21.7126 12.6651 21.7548 12.3528 21.4804 12.1895C21.2059 12.0262 20.7204 12.0759 20.3967 12.3031C20.073 12.5231 20.0378 12.8355 20.3123 13.0059C20.5797 13.1621 21.0652 13.1195 21.3889 12.8923Z" fill="#FEFEFE"/>
<path d="M39.15 17.3999L38.6785 18.2164C38.5308 18.4933 38.2493 18.7063 37.813 18.7063L37.0601 18.6921L37.2782 17.9537H37.426C37.5034 17.9537 37.5597 17.9466 37.6019 17.9253C37.6441 17.9111 37.6652 17.8827 37.7004 17.8401L37.9819 17.3928H39.1571L39.15 17.3999Z" fill="#FEFEFE"/>
</svg>
