<svg width="51" height="32" viewBox="0 0 51 32" fill="none" xmlns="http://www.w3.org/2000/svg">
<path d="M48.28 0H2.72C1.21779 0 0 1.21672 0 2.71762V29.2824C0 30.7833 1.21779 32 2.72 32H48.28C49.7822 32 51 30.7833 51 29.2824V2.71762C51 1.21672 49.7822 0 48.28 0Z" fill="#0E4595"/>
<path d="M18.917 22.7079L21.1855 9.40771H24.814L22.5438 22.7079H18.917Z" fill="white"/>
<path d="M35.6531 9.69398C34.9342 9.42453 33.8079 9.13538 32.4011 9.13538C28.8159 9.13538 26.2904 10.9393 26.2689 13.5246C26.2487 15.4357 28.0719 16.5018 29.4482 17.138C30.8605 17.7899 31.3353 18.2057 31.3286 18.7878C31.3196 19.6793 30.2007 20.0866 29.1578 20.0866C27.7055 20.0866 26.934 19.8851 25.7424 19.3885L25.2749 19.1771L24.7656 22.1545C25.6131 22.5257 27.1802 22.8474 28.8074 22.8641C32.6215 22.8641 35.0975 21.0808 35.1256 18.3201C35.1393 16.8071 34.1726 15.6556 32.0793 14.7064C30.811 14.0912 30.0343 13.6806 30.0426 13.0576C30.0426 12.5048 30.7 11.9136 32.1204 11.9136C33.307 11.8952 34.1664 12.1537 34.8361 12.4232L35.1613 12.5766L35.6531 9.69398Z" fill="white"/>
<path d="M44.9898 9.40771H42.1861C41.3175 9.40771 40.6676 9.64456 40.2861 10.5107L34.8975 22.6994H38.7076C38.7076 22.6994 39.3306 21.0605 39.4715 20.7007C39.8878 20.7007 43.5892 20.7064 44.1183 20.7064C44.2269 21.172 44.5598 22.6994 44.5598 22.6994H47.9266L44.9898 9.40771ZM40.5415 17.9959C40.8415 17.2296 41.9871 14.278 41.9871 14.278C41.9657 14.3134 42.2849 13.5079 42.4682 13.0086L42.7134 14.1553C42.7134 14.1553 43.4082 17.3301 43.5534 17.9958H40.5415V17.9959Z" fill="white"/>
<path d="M15.8373 9.40771L12.285 18.4774L11.9065 16.6343C11.2452 14.5095 9.18478 12.2075 6.88135 11.0551L10.1295 22.6867L13.9684 22.6823L19.6807 9.40771H15.8373Z" fill="white"/>
<path d="M8.97058 9.40771H3.11979L3.07349 9.68444C7.62534 10.7853 10.6373 13.4458 11.8875 16.6425L10.6153 10.5306C10.3957 9.68838 9.75864 9.43707 8.97058 9.40771Z" fill="#F2AE14"/>
</svg>
